<svg xmlns="http://www.w3.org/2000/svg" version="1.1" xmlns:xlink="http://www.w3.org/1999/xlink" xmlns:svgjs="http://svgjs.dev/svgjs" width="2000" height="1342" viewBox="0 0 2000 1342"><g transform="matrix(1,0,0,1,1.231425426527153,0.5433198380566182)"><svg viewBox="0 0 368 247" data-background-color="#ffffff" preserveAspectRatio="xMidYMid meet" height="1342" width="2000" xmlns="http://www.w3.org/2000/svg" xmlns:xlink="http://www.w3.org/1999/xlink"><g id="tight-bounds" transform="matrix(1,0,0,1,-0.2265822784810041,-0.09999999999999432)"><svg viewBox="0 0 368.453164556962 247.2" height="247.2" width="368.453164556962"><g><svg viewBox="0 0 368.453164556962 247.2" height="247.2" width="368.453164556962"><g><svg viewBox="0 0 368.453164556962 247.2" height="247.2" width="368.453164556962"><g id="textblocktransform"><svg viewBox="0 0 368.453164556962 247.2" height="247.2" width="368.453164556962" id="textblock"><g><svg viewBox="0 0 368.453164556962 247.2" height="247.2" width="368.453164556962"><g transform="matrix(1,0,0,1,0,0)"><svg width="368.453164556962" viewBox="1.95 -37.84 57.489999999999995 38.57000000000001" height="247.2" data-palette-color="#1b176a"><path d="M19.56-5.64L20.51-4.64Q18.38-2.15 16.91-1.01 15.43 0.12 14.16 0.43 12.89 0.73 11.35 0.73L11.35 0.73Q8.98 0.73 6.82-0.65 4.66-2.03 3.31-4.63 1.95-7.23 1.95-10.84L1.95-10.84Q1.95-14.36 3.6-17.21 5.25-20.07 8.08-21.75 10.91-23.44 14.4-23.44L14.4-23.44Q16.02-23.44 17.66-22.9 19.31-22.36 20.14-21.51L20.14-21.51Q20.21-21.12 19.98-20.34 19.75-19.56 19.41-18.76 19.07-17.97 18.75-17.5L18.75-17.5 17.85-17.75Q17.46-18.6 16.09-19.68 14.72-20.75 12.21-20.75L12.21-20.75Q10.5-20.75 9-19.74 7.5-18.73 6.56-16.69 5.62-14.65 5.62-11.6L5.62-11.6Q5.62-8.84 6.68-6.77 7.74-4.71 9.45-3.58 11.16-2.44 13.11-2.44L13.11-2.44Q14.04-2.44 14.82-2.6 15.6-2.76 16.67-3.43 17.75-4.1 19.56-5.64L19.56-5.64ZM33.54 0L22.56 0 22.56-1.05Q24.66-1.42 25.44-1.78 26.22-2.15 26.22-2.54L26.22-2.54 26.22-31.64Q26.22-33.08 25.94-33.7 25.66-34.33 24.91-34.55 24.17-34.77 22.8-34.91L22.8-34.91 22.8-35.89Q24.56-36.23 26.04-36.65 27.51-37.06 29-37.84L29-37.84 29.88-37.01 29.88-2.54Q29.88-2.17 30.71-1.78 31.54-1.39 33.54-1.05L33.54-1.05 33.54 0ZM58.93-22.71L58.93-21.66Q56.95-21.51 55.87-20.94 54.78-20.36 54.15-19.46L54.15-19.46 48.14-11.01 46.85-12.89 51.44-19.51Q52.27-20.7 51.7-21.11 51.14-21.51 49.63-21.66L49.63-21.66 49.63-22.71 58.93-22.71ZM59.44 0L49.63 0 49.63-1.05Q50.43-1.12 51.09-1.29 51.75-1.46 51.92-1.89 52.09-2.32 51.44-3.2L51.44-3.2 39.55-19.46Q38.91-20.34 38.14-20.92 37.37-21.51 35.4-21.66L35.4-21.66 35.4-22.71 45.65-22.71 45.65-21.66Q44.16-21.51 43.54-21.08 42.91-20.65 43.75-19.51L43.75-19.51 55.54-3.34Q56.07-2.61 56.95-1.94 57.83-1.27 59.44-1.05L59.44-1.05 59.44 0ZM46.85-10.11L41.99-3.2Q41.38-2.32 41.71-1.89 42.04-1.46 42.83-1.29 43.62-1.12 44.38-1.05L44.38-1.05 44.38 0 35.13 0 35.13-1.05Q37.08-1.34 37.95-1.97 38.81-2.59 39.35-3.34L39.35-3.34 45.6-12.06 46.85-10.11Z" opacity="1" transform="matrix(1,0,0,1,0,0)" fill="#1b176a" class="wordmark-text-0" data-fill-palette-color="primary" id="text-0"></path></svg></g></svg></g></svg></g></svg></g></svg></g><defs></defs></svg><rect width="368.453164556962" height="247.2" fill="none" stroke="none" visibility="hidden"></rect></g></svg></g></svg>